<svg xmlns="http://www.w3.org/2000/svg" width="1024" height="768" viewBox="0 0 1024 768"><rect width="100%" height="100%" fill="#DDDDDD"/><path fill="#999999" d="M249.35 416.28h15.6v11.1h-48v-11.1h17.58V365.7q0-3 .18-6.18l-12.48 10.44q-1.08.84-2.13 1.05t-1.98.03-1.65-.63-1.08-.99l-4.68-6.42 26.46-22.5h12.18zm89.7-32.28q0 11.34-2.43 19.71t-6.72 13.83-10.14 8.13-12.63 2.67-12.57-2.67-10.05-8.13-6.66-13.83-2.4-19.71q0-11.4 2.4-19.74t6.66-13.8 10.05-8.13 12.57-2.67 12.63 2.67 10.14 8.13 6.72 13.8 2.43 19.74m-15.3 0q0-9.42-1.38-15.6t-3.69-9.84-5.31-5.13-6.24-1.47q-3.18 0-6.15 1.47t-5.25 5.13-3.63 9.84-1.35 15.6 1.35 15.6 3.63 9.84 5.25 5.13 6.15 1.47q3.24 0 6.24-1.47t5.31-5.13 3.69-9.84 1.38-15.6m54.9 29.58h22.26q2.4 0 3.81 1.35t1.41 3.57v8.88h-59.52v-4.92q0-1.5.63-3.15t2.01-2.97l26.34-26.4q3.3-3.36 5.91-6.42t4.35-6.06 2.67-6.09.93-6.51q0-3.12-.9-5.49t-2.55-3.99-3.96-2.43-5.19-.81q-2.64 0-4.89.75t-3.99 2.1-2.94 3.15-1.8 3.96q-1.02 2.76-2.64 3.66t-4.68.42l-7.8-1.38q.9-6.24 3.48-10.95t6.45-7.86 8.88-4.74 10.77-1.59q6 0 10.98 1.77t8.52 5.01 5.52 7.8 1.98 10.14q0 4.8-1.41 8.88t-3.78 7.8-5.55 7.2-6.66 7.08l-19.56 19.98q2.82-.84 5.61-1.29t5.31-.45m49.32-18.9h26.4V366.3q0-4.02.54-8.88zm39.3 0h10.92v8.58q0 1.2-.78 2.07t-2.22.87h-7.92v21.18h-12.9V406.2h-36.6q-1.5 0-2.64-.93t-1.44-2.31l-1.56-7.5 41.1-54.9h14.04zm106.26 12.84-7.86 7.74-20.34-20.34-20.52 20.46-7.86-7.74 20.52-20.58-19.56-19.56 7.8-7.8 19.56 19.56 19.44-19.44 7.92 7.8-19.5 19.5zm41.22-66.9h59.94v6.42q0 2.88-.6 4.65t-1.2 2.97l-32.88 67.68q-1.02 2.1-2.88 3.57t-4.98 1.47h-10.74l33.54-66.3q1.14-2.04 2.25-3.75t2.49-3.27h-41.52q-1.38 0-2.4-1.02t-1.02-2.4zm121.08 0-25.74 31.5-3 3.72q2.52-1.26 5.43-1.95t6.27-.69q4.92 0 9.57 1.62t8.19 4.89 5.7 8.13 2.16 11.34q0 6.06-2.22 11.37t-6.24 9.27-9.69 6.24-12.51 2.28q-6.96 0-12.48-2.22t-9.42-6.21-5.97-9.6-2.07-12.45q0-6.12 2.49-12.57t7.71-13.41l20.7-27.78q1.08-1.44 3.15-2.46t4.77-1.02zm-22.38 75.6q3.54 0 6.51-1.2t5.1-3.36 3.33-5.07 1.2-6.33q0-3.72-1.14-6.69t-3.24-5.04-5.04-3.15-6.48-1.08-6.42 1.2-4.92 3.33-3.18 5.04-1.14 6.27q0 3.6.99 6.57t2.94 5.07 4.83 3.27 6.66 1.17m69.72.54q3.66 0 6.42-1.05t4.65-2.91 2.85-4.44.96-5.58q0-7.14-3.96-10.8t-10.92-3.66-10.92 3.66-3.96 10.8q0 3 .96 5.58t2.85 4.44 4.65 2.91 6.42 1.05m0-65.94q-3.3 0-5.7 1.02t-3.99 2.73-2.34 3.93-.75 4.68q0 2.58.63 5.01t2.13 4.32 3.96 3.03 6.06 1.14 6.06-1.14 3.96-3.03 2.13-4.32.63-5.01q0-2.46-.78-4.68t-2.34-3.93-3.96-2.73-5.7-1.02m14.64 31.32q7.92 2.58 11.7 7.89t3.78 12.99q0 5.76-2.19 10.44t-6.15 7.98-9.51 5.1-12.27 1.8-12.27-1.8-9.51-5.1-6.15-7.98-2.19-10.44q0-7.68 3.78-12.99t11.7-7.89q-6.3-2.64-9.45-7.5t-3.15-11.7q0-4.92 2.01-9.18t5.61-7.41 8.61-4.92 11.01-1.77 11.01 1.77 8.61 4.92 5.61 7.41 2.01 9.18q0 6.84-3.15 11.7t-9.45 7.5"/></svg>